<svg id="Layer_1" data-name="Layer 1" xmlns="http://www.w3.org/2000/svg" viewBox="0 0 2020 280.7"><defs><style>.cls-1{fill:#12420b;}</style></defs><path class="cls-1" d="M114.73,180.05c-17.61-17.61-32.07-35-32-60a71.64,71.64,0,0,1,143.27.32c0,24.89-13.7,41.39-32,59.66-18.76,18.75-28.48,46.55-12.9,69.23A49.58,49.58,0,0,0,199,265.14c19.33,10.19,43.1,6,58.42-9.6a144.41,144.41,0,1,0-205.89.1c15.29,15.54,39,19.67,58.32,9.5a49.56,49.56,0,0,0,17.79-15.86C143.2,226.6,135.88,201.2,114.73,180.05Z"/><path class="cls-1" d="M477.07,144.08h0a23.65,23.65,0,0,0-26.57,21.1c-.8,8.36,0,12.89-4.73,19-7.3,9.54-19.78,13.91-32.91,13.91-26.57,0-45.51-12.71-45.51-54.3,0-40.19,17.79-49.67,37.19-49.67,23.57,0,37.89,12.25,37.89,37.89a95,95,0,0,1-.92,10.63l47.13-13.4c-.24-52.67-35.81-74.62-83.87-74.62-42.51,0-82,29.34-82,89.17,0,64,31.42,92.42,90.56,92.42,51.25,0,80.35-29.86,84.31-66A23.74,23.74,0,0,0,477.07,144.08Z"/><path class="cls-1" d="M652.65,155.14v76.93h-42.5V158.6c0-31.19-9.94-41.58-29.81-41.58-19.63,0-34,16.17-34,44.35v70.7H503.87v-152A21.25,21.25,0,0,1,525.13,58.8h0a21.24,21.24,0,0,1,21.25,21.25V84l-3.92,55.22,2.07.23c7.17-46.9,26.11-58,56.37-58C633.25,81.44,652.65,101.54,652.65,155.14Z"/><path class="cls-1" d="M694.69,146.59c6.7-53.6,27-65.38,60.76-62.61l-1.15,42.28c-40-2.08-53.37,9.47-53.37,37.19v68.62H658.42V84h38.12l-3.93,62.38Z"/><path class="cls-1" d="M749.67,156.75c0-51.52,37.19-76.47,76.7-76.47,52.67,0,79.47,24.72,79.47,79.48,0,49.9-35.81,76.24-77.62,76.24C776.47,236,749.67,211.51,749.67,156.75Zm113.43,3c0-32.58-17.09-43-36.27-43-20.1,0-34.65,7.39-34.65,40,0,33,17.32,43.21,36.5,43.21C848.78,200,863.1,192.33,863.1,159.76Z"/><path class="cls-1" d="M1056.93,155.14v76.93h-42.51V158.6c0-31.19-9.94-41.58-29.8-41.58-19.64,0-34,16.17-34,44.35v70.7h-42.5V84h42.5l-3.92,55.22,2.08.23c7.39-47.6,26.1-59.15,56.37-59.15C1037.52,80.28,1056.93,100.85,1056.93,155.14Z"/><path class="cls-1" d="M1260.09,161.15l-41.35,7.16c0,21.25-9.1,30.26-25.75,30.26-22,0-35.58-10.4-35.58-41.82,0-30.26,15-39.27,31-39.27,8.12,0,15.38,2.09,20.73,6.75,1.85,1.62,3.47,5.13,4.81,9.2a22.87,22.87,0,0,0,27.67,14.75h0a22.82,22.82,0,0,0,15.63-29.91c-9.92-26.5-36.61-38-69.77-38-35.11,0-72.54,24.72-72.54,76.47,0,54.53,27.26,79,78.78,79C1248,235.76,1265.87,200.65,1260.09,161.15Z"/><path class="cls-1" d="M1284.92,97.38h59.38V232.07h42.51V97.38h40.31a19.29,19.29,0,0,0,19.29-19.29h0a19.28,19.28,0,0,0-19.29-19.29h-142.2Z"/><path class="cls-1" d="M1418.6,156.75c0-51.52,37.19-76.47,76.7-76.47,52.67,0,79.47,24.72,79.47,79.48,0,49.9-35.81,76.24-77.62,76.24C1445.4,236,1418.6,211.51,1418.6,156.75Zm113.43,3c0-32.58-17.09-43-36.27-43-20.1,0-34.65,7.39-34.65,40,0,33,17.32,43.21,36.5,43.21C1517.71,200,1532,192.33,1532,159.76Z"/><path class="cls-1" d="M1673.87,232.07l-49.2-70h-2.55l2.08,70h-42.51V58.8h42.51V84l-2.08,70.46h2.55l43.27-62.85A17.6,17.6,0,0,1,1682.42,84h0a17.59,17.59,0,0,1,13.87,28.41l-31.2,40-26.8,4.62v2.31l30.27,4.16,54.75,68.62Z"/><path class="cls-1" d="M1854.76,159.52c5.08,40-19.87,76.24-76.47,76.24-52.44,0-79.94-24.25-79.94-79,0-51.52,37.66-76.47,73-76.47,42.28,0,72.08,18.49,74.85,62.15l-28.65,9v2.77Zm-113.9-2.77c0,3.47.23,6.7.46,9.94L1803,148.21c-2.08-25.88-14.79-34.2-31.42-34.2C1756.11,114,1740.86,123.25,1740.86,156.75Zm72.78,10.4c0-5.32-1.39-9.24-3.24-13.63l-67.46,21.25c4.62,18.49,17.79,25.42,35.58,25.42C1797.46,200.19,1813.64,189.1,1813.64,167.15Z"/><path class="cls-1" d="M2010,155.14v76.93h-42.51V158.6c0-31.19-9.93-41.58-29.8-41.58-19.64,0-34,16.17-34,44.35v70.7h-42.51V84h42.51l-3.93,55.22,2.08.23c7.39-47.6,26.1-59.15,56.37-59.15C1990.59,80.28,2010,100.85,2010,155.14Z"/><path class="cls-1" d="M1103.91,94.21c5-4.85,8.1-10.59,8.1-18.1,0-14.74-11.94-23.56-26.68-23.56s-26.67,8.82-26.67,23.56c0,7.51,3.1,13.25,8.1,18.1,3.68,3.57,12.59,4.39,12.59,17.78s-15.15,14.58-15.15,14.58v105.5h42.27V126.57s-15.15-1.27-15.15-14.58S1100.23,97.78,1103.91,94.21Z"/></svg>